<svg width="35" height="35" viewBox="0 0 35 35" fill="none" xmlns="http://www.w3.org/2000/svg">
<path d="M25.5664 5.09068C25.081 5.10846 24.8281 5.55484 25.2724 6.17691L26.913 5.94381C26.4687 5.32105 25.9492 5.07633 25.5664 5.09068ZM22.9687 5.71275C22.7294 5.71275 22.5175 5.7818 22.3535 5.89937C21.8681 6.24801 21.8339 7.04781 22.8935 7.81344C22.2851 8.90035 20.8564 10.9443 18.7783 10.7666L20.9726 11.4365C20.788 11.5459 20.583 11.6484 20.3437 11.7441C8.11421 8.16207 2.0022 18.8056 2.0022 18.8056C5.49536 23.5839 2.28247 25.5664 2.28247 25.5664L2.81636 29.873H4.78579L5.00386 27.0703C5.00386 27.0703 7.22554 26.8652 9.29683 22.7431C11.2792 23.413 14.1503 23.3652 16.3105 22.9687L16.0302 23.4541L13.4736 24.2129C15.6064 24.4043 17.4726 24.0556 18.8535 23.6318C18.621 22.5996 18.5458 21.4785 19.0927 20.0224L21 29.873H22.7705C22.7705 29.873 22.456 24.7461 25.122 20.0634C25.4638 19.5302 25.7646 19.0312 26.0175 18.4433L26.1542 19.2021L25.4365 20.788C25.4365 20.788 28.1025 19.7148 27.4326 14.2255C29.0048 14.4921 30.5498 14.3418 31.9853 13.9111C32.3476 13.7949 32.6347 13.5146 32.7509 13.1591C33.0927 12.0927 33.4003 10.9375 33.4619 9.92574L32.7988 9.98043C32.7851 8.93453 31.3496 9.08492 31.7802 10.0351L31.0625 10.0693L30.7275 9.00973C30.7275 9.00973 31.8828 8.1689 33.3525 8.52437C33.291 8.30562 33.2021 8.11422 33.0859 7.93648C32.1425 6.51461 29.374 6.03609 24.7187 6.87008C24.1718 6.03336 23.5019 5.7107 22.9687 5.71275ZM26.3798 8.02535C27.2275 8.12105 27.8769 8.3193 28.4443 8.6816H27.3574C27.248 9.00972 26.8447 9.25582 26.3662 9.25582C25.8876 9.25582 25.4843 9.00972 25.375 8.6816H24.3154C24.6025 8.47652 25.3613 8.01851 26.3798 8.02535ZM27.0361 20.4394C25.997 22.5107 24.6777 22.75 24.6777 22.75C23.7617 25.3271 23.9667 27.6582 24.8007 29.8525H26.3183C26.0585 26.7968 26.0996 24.4931 27.0361 20.4394ZM9.87104 23.8779L8.65425 25.7031L10.5136 27.4189L11.4638 29.8525H13.5078L12.1337 24.2607L9.87104 23.8779Z" fill="#E4F5F4" fill-opacity="0.65"/>
</svg>
