<svg width="29" height="30" viewBox="0 0 29 30" fill="none" xmlns="http://www.w3.org/2000/svg">
<g clip-path="url(#clip0_26_48)">
<path d="M14.5 0.5C6.48875 0.5 0 6.98875 0 15C0 21.4162 4.15062 26.8356 9.91437 28.7569C10.6394 28.8838 10.9112 28.4488 10.9112 28.0681C10.9112 27.7238 10.8931 26.5819 10.8931 25.3675C7.25 26.0381 6.3075 24.4794 6.0175 23.6637C5.85437 23.2469 5.1475 21.96 4.53125 21.6156C4.02375 21.3437 3.29875 20.6731 4.51313 20.655C5.655 20.6369 6.47063 21.7062 6.7425 22.1412C8.0475 24.3344 10.1319 23.7181 10.9656 23.3375C11.0925 22.395 11.4731 21.7606 11.89 21.3981C8.66375 21.0356 5.2925 19.785 5.2925 14.2387C5.2925 12.6619 5.85438 11.3569 6.77875 10.3419C6.63375 9.97937 6.12625 8.49312 6.92375 6.49937C6.92375 6.49937 8.13813 6.11875 10.9112 7.98563C12.0712 7.65938 13.3038 7.49625 14.5363 7.49625C15.7688 7.49625 17.0013 7.65938 18.1613 7.98563C20.9344 6.10063 22.1488 6.49937 22.1488 6.49937C22.9463 8.49312 22.4388 9.97937 22.2938 10.3419C23.2181 11.3569 23.78 12.6437 23.78 14.2387C23.78 19.8031 20.3906 21.0356 17.1644 21.3981C17.69 21.8512 18.1431 22.7213 18.1431 24.0806C18.1431 26.02 18.125 27.5788 18.125 28.0681C18.125 28.4488 18.3969 28.9019 19.1219 28.7569C22.0008 27.7858 24.5026 25.936 26.2747 23.468C28.0469 21.0001 29 18.0383 29 15C29 6.98875 22.5113 0.5 14.5 0.5Z" fill="#E4F5F4"/>
</g>
<defs>
<clipPath id="clip0_26_48">
<rect width="29" height="29" fill="white" transform="translate(0 0.5)"/>
</clipPath>
</defs>
</svg>
