<svg width="35" height="36" viewBox="0 0 35 36" fill="none" xmlns="http://www.w3.org/2000/svg">
<path fill-rule="evenodd" clip-rule="evenodd" d="M13.7506 13.5798H19.1668V16.2777C19.947 14.7261 21.9479 13.3319 24.9535 13.3319C30.7154 13.3319 32.0833 16.4206 32.0833 22.0877V32.5834H26.25V23.3784C26.25 20.1511 25.4698 18.3311 23.4835 18.3311C20.7287 18.3311 19.5839 20.2925 19.5839 23.3769V32.5834H13.7506V13.5798ZM3.74788 32.3354H9.58121V13.3319H3.74788V32.3354ZM10.4168 7.13544C10.4171 7.62438 10.3201 8.10849 10.1316 8.55963C9.94305 9.01077 9.66674 9.41994 9.31871 9.76336C8.96964 10.1106 8.55557 10.3857 8.10016 10.5728C7.64475 10.76 7.15692 10.8556 6.66454 10.8542C5.6723 10.852 4.72046 10.4609 4.01329 9.76481C3.66665 9.42013 3.39136 9.01048 3.20318 8.55931C3.01501 8.10813 2.91763 7.62428 2.91663 7.13544C2.91663 6.14815 3.31038 5.20315 4.01475 4.50606C4.72015 3.80735 5.67313 3.41578 6.666 3.41669C7.66058 3.41669 8.61433 3.80898 9.31871 4.50606C10.0231 5.20315 10.4168 6.14815 10.4168 7.13544Z" fill="#E4F5F4"/>
</svg>
